<svg width="0" height="0"><symbol xmlns="http://www.w3.org/2000/svg" id="save" viewBox="0 0 20 20"><rect width="20" height="20" fill="none" rx="8"/><svg xmlns="http://www.w3.org/2000/svg" width="20" height="20" viewBox="0 0 20 20"><path fill="currentColor" stroke="currentColor" stroke-linecap="round" stroke-linejoin="round" stroke-width="2" d="M2.727 1.364c-.753 0-1.363.61-1.363 1.363v14.546c0 .753.61 1.363 1.363 1.363h14.546c.753 0 1.363-.61 1.363-1.363V2.727c0-.753-.61-1.363-1.363-1.363H2.727ZM17.273 0A2.727 2.727 0 0 1 20 2.727v14.546A2.727 2.727 0 0 1 17.273 20H2.727A2.727 2.727 0 0 1 0 17.273V2.727A2.727 2.727 0 0 1 2.727 0h14.546Zm-3.318 2.435a.682.682 0 0 0-.682.682V5a.682.682 0 0 0 1.364 0V3.117a.682.682 0 0 0-.682-.682ZM2.744.94l1.363.006-.021 4.446c-.03.406.1.734.415 1.037.313.301.744.438 1.384.4l8.625.004c.482-.055.821-.213 1.05-.469.228-.257.346-.603.345-1.073V.942h1.364v4.347c.001.789-.227 1.46-.692 1.982-.465.522-1.114.825-1.99.92h-8.66c-.959.059-1.765-.197-2.371-.78-.604-.58-.89-1.304-.832-2.072l.02-4.4Z"/></svg></symbol><symbol xmlns="http://www.w3.org/2000/svg" id="spinner" fill="none" aria-hidden="true" viewBox="0 0 100 101"><path fill="#E5E7EB" d="M100 50.59c0 27.615-22.386 50.001-50 50.001s-50-22.386-50-50 22.386-50 50-50 50 22.386 50 50Zm-90.919 0c0 22.6 18.32 40.92 40.919 40.92 22.599 0 40.919-18.32 40.919-40.92 0-22.598-18.32-40.918-40.919-40.918-22.599 0-40.919 18.32-40.919 40.919Z"/><path fill="currentColor" d="M93.968 39.04c2.425-.636 3.894-3.128 3.04-5.486A50 50 0 0 0 41.735 1.279c-2.474.414-3.922 2.919-3.285 5.344.637 2.426 3.12 3.849 5.6 3.484a40.916 40.916 0 0 1 44.131 25.769c.902 2.34 3.361 3.802 5.787 3.165Z"/></symbol></svg>